<svg width="20" height="20" viewBox="0 0 20 20" fill="none" xmlns="http://www.w3.org/2000/svg">
<g clip-path="url(#clip0_61_388)">
<path d="M10 20C4.48566 20 0 15.5143 0 10C0 4.48566 4.48566 0 10 0C15.5143 0 20 4.48645 20 10C20 15.5136 15.5143 20 10 20ZM10 1.54918C5.34082 1.54918 1.54918 5.34004 1.54918 10C1.54918 14.66 5.34082 18.4508 10 18.4508C14.6592 18.4508 18.4508 14.66 18.4508 10C18.4508 5.34004 14.66 1.54918 10 1.54918Z" fill="black"/>
<path d="M13.873 10.8443H10.7746V13.9427C10.7746 14.3703 10.4284 14.7173 10 14.7173C9.57167 14.7173 9.22542 14.3703 9.22542 13.9427V10.8443H6.12706C5.6987 10.8443 5.35245 10.4973 5.35245 10.0697C5.35245 9.64213 5.6987 9.2951 6.12706 9.2951H9.22542V6.19674C9.22542 5.76916 9.57167 5.42213 10 5.42213C10.4284 5.42213 10.7746 5.76916 10.7746 6.19674V9.2951H13.873C14.3014 9.2951 14.6476 9.64213 14.6476 10.0697C14.6476 10.4973 14.3014 10.8443 13.873 10.8443Z" fill="black"/>
</g>
<defs>
<clipPath id="clip0_61_388">
<rect width="20" height="20" fill="white" transform="matrix(1 0 0 -1 0 20)"/>
</clipPath>
</defs>
</svg>
