<svg width="19" height="18" viewBox="0 0 19 18" fill="none" xmlns="http://www.w3.org/2000/svg">
<path d="M18.273 1.83801H7.19927C6.89482 0.938194 6.03955 0.288086 5.03397 0.288086C4.02839 0.288086 3.17312 0.938194 2.86868 1.83801H1.14015C0.738617 1.83801 0.413086 2.16196 0.413086 2.56153C0.413086 2.96111 0.738617 3.28505 1.14015 3.28505H2.86872C3.17317 4.18487 4.02844 4.83498 5.03402 4.83498C6.0396 4.83498 6.89487 4.18487 7.19932 3.28505H18.2731C18.6746 3.28505 19.0001 2.96111 19.0001 2.56153C19.0001 2.16196 18.6746 1.83801 18.273 1.83801ZM5.03397 3.38794C4.57607 3.38794 4.20352 3.01721 4.20352 2.56153C4.20352 2.10586 4.57607 1.73513 5.03397 1.73513C5.49188 1.73513 5.86443 2.10586 5.86443 2.56153C5.86443 3.01721 5.49188 3.38794 5.03397 3.38794Z" fill="#868889"/>
<path d="M18.273 8.03821H16.5444C16.24 7.13839 15.3847 6.48828 14.3791 6.48828C13.3736 6.48828 12.5183 7.13839 12.2139 8.03821H1.14015C0.738617 8.03821 0.413086 8.36215 0.413086 8.76173C0.413086 9.16131 0.738617 9.48525 1.14015 9.48525H12.2139C12.5183 10.3851 13.3737 11.0352 14.3792 11.0352C15.3847 11.0352 16.24 10.3851 16.5445 9.48525H18.2731C18.6746 9.48525 19.0001 9.16131 19.0001 8.76173C19.0001 8.36215 18.6746 8.03821 18.273 8.03821ZM14.3792 9.58813C13.9213 9.58813 13.5487 9.2174 13.5487 8.76173C13.5487 8.30606 13.9213 7.93532 14.3792 7.93532C14.8371 7.93532 15.2096 8.30606 15.2096 8.76173C15.2096 9.2174 14.8371 9.58813 14.3792 9.58813Z" fill="#868889"/>
<path d="M18.273 14.2374H10.3144C10.0099 13.3376 9.15464 12.6875 8.14906 12.6875C7.14348 12.6875 6.28821 13.3376 5.98376 14.2374H1.14015C0.738617 14.2374 0.413086 14.5614 0.413086 14.9609C0.413086 15.3605 0.738617 15.6845 1.14015 15.6845H5.98376C6.28821 16.5843 7.14348 17.2344 8.14906 17.2344C9.15464 17.2344 10.0099 16.5843 10.3144 15.6845H18.2731C18.6746 15.6845 19.0001 15.3605 19.0001 14.9609C19.0001 14.5614 18.6746 14.2374 18.273 14.2374ZM8.14906 15.7874C7.69115 15.7874 7.3186 15.4167 7.3186 14.961C7.3186 14.5053 7.69115 14.1346 8.14906 14.1346C8.60696 14.1346 8.97951 14.5053 8.97951 14.9609C8.97951 15.4166 8.60696 15.7874 8.14906 15.7874Z" fill="#868889"/>
</svg>
