<svg width="25" height="27" viewBox="0 0 25 27" fill="none" xmlns="http://www.w3.org/2000/svg">
<path d="M21.7525 9.04061C19.4919 9.98256 17.1364 10.5781 14.7227 10.8204L15.8605 8.84954L19.7407 9.08246C20.1717 9.10831 20.5421 8.77991 20.5679 8.34894C20.5938 7.91796 20.2654 7.5476 19.8344 7.5217L16.7346 7.33563L17.4241 6.14143L21.3043 6.37435C21.7352 6.4002 22.1057 6.0718 22.1315 5.64082C22.1574 5.20985 21.829 4.83949 21.398 4.81359L18.2982 4.62752L19.1642 3.12758C20.0277 1.63187 21.9402 1.11943 23.4359 1.98294C24.9316 2.84651 25.444 4.75902 24.5805 6.25474L23.3584 8.3715L21.7525 9.04061Z" fill="#AE80FF"/>
<path d="M12.2308 10.945C11.1934 10.945 10.1643 10.8809 9.1461 10.7537C9.11868 10.5608 9.10367 10.3637 9.10367 10.1632C9.10367 7.86041 10.9704 5.99365 13.2732 5.99365C14.0401 5.99365 14.758 6.20161 15.3754 6.56285L12.8497 10.9374C12.6438 10.9424 12.4375 10.945 12.2308 10.945Z" fill="#AE80FF"/>
<path d="M8.09194 7.7103C7.51425 6.18259 7.40845 5.03299 7.40694 5.01538C7.3703 4.58518 6.99176 4.26715 6.56173 4.30259C6.13153 4.33918 5.81241 4.71762 5.84899 5.14781C5.85853 5.26008 6.07566 7.61967 7.5412 10.2166C7.54209 10.3119 7.546 10.4066 7.55152 10.5008C5.89971 10.183 4.28135 9.69578 2.70902 9.04064L1.76801 8.64855C1.89164 8.34548 2.06405 8.06299 2.28008 7.81381C1.21878 7.34323 0.503965 6.28646 0.503965 5.08162C0.503965 3.42913 1.84833 2.08477 3.50082 2.08477C3.76266 2.08477 4.02185 2.1199 4.27557 2.18947C4.62993 0.912763 5.79104 0 7.14916 0C8.47189 0 9.61706 0.862312 10.0029 2.09842C10.095 2.0893 10.1859 2.08477 10.2763 2.08477C11.7053 2.08477 12.9032 3.09046 13.2012 4.43107C10.9477 4.45895 9.00325 5.79341 8.09194 7.7103Z" fill="#AE80FF"/>
<path d="M2.10764 10.4841C5.33189 11.8276 8.73783 12.5087 12.2308 12.5087C15.7238 12.5087 19.1297 11.8276 22.354 10.4841C22.9024 10.2556 23.4953 10.6982 23.4319 11.289C23.1715 13.7199 22.2288 22.6131 22.0178 24.589C21.8903 25.7839 20.8877 26.6851 19.6858 26.6851H4.77588C3.57391 26.6851 2.57134 25.7839 2.44376 24.5889C2.23283 22.6131 1.2901 13.7198 1.02966 11.289C0.966333 10.6982 1.55919 10.2556 2.10764 10.4841ZM6.23709 21.4732C6.23709 21.905 6.58713 22.255 7.01888 22.255H17.4427C17.8745 22.255 18.2245 21.905 18.2245 21.4732V17.3037C18.2245 16.8719 17.8745 16.5219 17.4427 16.5219H7.01888C6.58713 16.5219 6.23709 16.8719 6.23709 17.3037V21.4732Z" fill="#AE80FF"/>
<path d="M16.6609 18.0854H7.80063V20.6914H16.6609V18.0854Z" fill="#AE80FF"/>
</svg>
