<svg width="38" height="38" viewBox="0 0 38 38" fill="none" xmlns="http://www.w3.org/2000/svg">
<g clip-path="url(#clip0_160_1480)">
<path d="M33.4014 2.55512C30.5741 0.92329 26.6766 0.854517 23.2318 2.37607C20.0443 3.78463 17.7466 6.88832 16.3885 9.22077C15.7771 9.07169 15.1229 9.36237 14.839 9.95399C14.5674 10.5197 14.726 11.176 15.178 11.5682C15.0542 11.8439 14.9785 12.0291 14.95 12.1012L8.35313 26.5911C7.68796 26.2847 6.89551 26.5577 6.56738 27.2187C6.23312 27.892 6.5075 28.709 7.18078 29.0439L7.2257 29.0664L5.74167 32.3281H2.05384C1.30225 32.3281 0.692261 32.9381 0.692261 33.6897C0.692261 34.4413 1.30225 35.0513 2.05384 35.0513H8.86173C9.61332 35.0513 10.2233 34.4413 10.2233 33.6897C10.2233 32.9381 9.61332 32.3281 8.86173 32.3281H8.73373L9.67797 30.2537C9.80256 30.2898 9.9285 30.3143 10.0544 30.3143C10.5548 30.3143 11.0368 30.0372 11.2751 29.5587C11.587 28.931 11.365 28.1841 10.789 27.8138L17.6249 12.799C17.8094 12.8841 18.002 12.9264 18.1933 12.9264C18.7005 12.9264 19.1872 12.6418 19.4215 12.1537C19.7332 11.5049 19.48 10.7356 18.8632 10.3856C20.028 8.4229 21.8927 5.9455 24.3333 4.86713C26.9571 3.70775 29.9825 3.72547 32.0405 4.91341C33.554 5.78689 34.4233 7.17637 34.6261 9.04442C35.006 12.543 34.684 14.889 33.6717 16.0184C33.5784 16.1226 33.4757 16.2118 33.3708 16.2961V19.344C34.2095 19.0608 35.0149 18.5986 35.6984 17.8368C37.2723 16.0838 37.8067 13.1114 37.3336 8.75096C37.041 6.04895 35.6439 3.84864 33.4014 2.55512Z" fill="#FF7EB6"/>
<path d="M29.5237 25.5204C30.4122 25.5204 31.2523 25.7225 32.0086 26.0752V19.6615V16.8989V15.3086C32.0086 14.5563 32.0801 14.6278 31.3279 14.6278H28.6612C27.909 14.6278 20.3215 15.2521 18.3173 25.1596L17.0312 33.3494C17.0312 34.1016 17.6406 35.0513 18.3928 35.0513H24.8542C24.0767 34.0499 23.609 32.7973 23.609 31.435C23.609 28.1733 26.2628 25.5204 29.5237 25.5204Z" fill="#FF7EB6"/>
<path d="M32.6894 28.1698C32.4804 27.9676 32.253 27.7852 32.0087 27.6252C31.2932 27.1569 30.4402 26.8818 29.5238 26.8818C27.013 26.8818 24.9707 28.9242 24.9707 31.435C24.9707 32.9095 25.6787 34.2193 26.7694 35.0513C27.1493 35.3413 27.5748 35.5721 28.0343 35.7321C28.502 35.8947 29.0018 35.9874 29.5239 35.9874C30.0461 35.9874 30.5458 35.8947 31.0135 35.7321C31.4955 35.5645 31.9414 35.3188 32.3349 35.0091C32.7052 34.7177 33.0314 34.3725 33.2962 33.9818C33.7891 33.2539 34.0778 32.3771 34.0778 31.4342C34.0778 30.5425 33.8164 29.7125 33.3718 29.01C33.1761 28.7035 32.9488 28.4211 32.6894 28.1698ZM29.5237 29.1509C30.7846 29.1509 31.8071 30.1734 31.8071 31.4342C31.8071 32.6951 30.7846 33.7176 29.5237 33.7176C28.2629 33.7176 27.2404 32.6951 27.2404 31.4342C27.2404 30.1734 28.2623 29.1509 29.5237 29.1509Z" fill="#FF7EB6"/>
</g>
<defs>
<clipPath id="clip0_160_1480">
<rect width="36.8077" height="36.8077" fill="white" transform="translate(0.692261 0.230469)"/>
</clipPath>
</defs>
</svg>
