<svg width="20" height="20" viewBox="0 0 20 20" fill="none" xmlns="http://www.w3.org/2000/svg">
<g clip-path="url(#clip0_46_291)">
<path d="M10.9563 19.9439C14.9683 19.4945 18.1836 16.2874 18.6411 12.2754C19.2417 7.02958 15.1644 2.5641 10.0534 2.5069V0.153637C10.0534 0.0229002 9.88994 -0.0465538 9.77964 0.0351568L4.9342 3.59365C4.85249 3.65494 4.85249 3.77342 4.9342 3.8347L9.77964 7.3932C9.88994 7.47491 10.0534 7.40137 10.0534 7.27471V4.92554C13.6445 4.98273 16.5208 8.03871 16.2756 11.6912C16.0673 14.8329 13.5056 17.3823 10.3639 17.5825C7.03416 17.795 4.20289 15.4172 3.69629 12.2713C3.60232 11.6871 3.09163 11.2622 2.50331 11.2622C1.772 11.2622 1.20003 11.9118 1.31442 12.6349C2.02531 17.1168 6.16394 20.4791 10.9563 19.9439Z" fill="black"/>
</g>
<defs>
<clipPath id="clip0_46_291">
<rect width="20" height="20" fill="white"/>
</clipPath>
</defs>
</svg>
